<svg xmlns="http://www.w3.org/2000/svg" xmlns:xlink="http://www.w3.org/1999/xlink" xmlns:serif="http://www.serif.com/" width="100%" height="100%" viewBox="0 0 264 45" version="1.1" xml:space="preserve" style="fill-rule:evenodd;clip-rule:evenodd;stroke-linejoin:round;stroke-miterlimit:2;">
    <g transform="matrix(1,0,0,1,-500.469,-1236)">
        <g transform="matrix(1,0,0,-1,515.969,1261.86)">
            <path d="M4.542,20.438C4.347,20.703 4.036,20.859 3.707,20.859L-0.43,20.859C-0.761,20.859 -1.072,20.702 -1.268,20.435L-15.301,1.291C-15.794,0.62 -15.314,-0.327 -14.481,-0.327L-12.22,-0.327C-11.896,-0.327 -11.593,-0.173 -11.401,0.087L-7.518,5.36L10.918,5.36L14.801,0.087C14.992,-0.173 15.296,-0.327 15.619,-0.327L17.871,-0.327C18.705,-0.327 19.184,0.622 18.688,1.294L4.542,20.438ZM-4.706,9.204L1.637,17.891L8.044,9.204L-4.706,9.204ZM53.209,14.609C53.209,15.464 53.043,16.27 52.709,17.031C52.375,17.791 51.928,18.453 51.366,19.016C50.803,19.578 50.141,20.025 49.382,20.359C48.62,20.693 47.814,20.859 46.96,20.859L22.616,20.859C22.03,20.859 21.555,20.384 21.555,19.798L21.555,0.689C21.555,0.128 22.01,-0.327 22.572,-0.327L46.96,-0.327C47.814,-0.327 48.62,-0.161 49.382,0.173C50.141,0.506 50.803,0.954 51.366,1.517C51.928,2.079 52.375,2.74 52.709,3.5C53.043,4.261 53.209,5.068 53.209,5.922C53.209,6.776 53.053,7.573 52.741,8.313C52.428,9.053 52,9.703 51.46,10.266C52,10.828 52.428,11.478 52.741,12.219C53.053,12.958 53.209,13.755 53.209,14.609M48.663,4.219C48.194,3.751 47.626,3.516 46.96,3.516L25.399,3.516L25.399,8.329L46.96,8.329C47.626,8.329 48.194,8.095 48.663,7.625C49.131,7.157 49.367,6.588 49.367,5.922C49.367,5.255 49.131,4.689 48.663,4.219M48.663,12.906C48.194,12.438 47.626,12.204 46.96,12.204L25.399,12.204L25.399,17.015L46.96,17.015C47.626,17.015 48.194,16.781 48.663,16.313C49.131,15.844 49.367,15.276 49.367,14.609C49.367,13.943 49.131,13.375 48.663,12.906M106.516,20.434C106.32,20.702 106.007,20.859 105.676,20.859L101.546,20.859C101.214,20.859 100.899,20.7 100.703,20.431L86.672,1.291C86.179,0.62 86.659,-0.327 87.492,-0.327L89.752,-0.327C90.075,-0.327 90.379,-0.173 90.572,0.087L94.454,5.36L112.89,5.36L116.773,0.087C116.964,-0.173 117.268,-0.327 117.591,-0.327L119.842,-0.327C120.678,-0.327 121.156,0.622 120.661,1.294L106.516,20.434ZM97.266,9.204L103.61,17.891L110.015,9.204L97.266,9.204ZM150.588,19.822L150.588,18.054C150.588,17.481 150.124,17.015 149.551,17.015L131.464,17.015C130.527,17.015 129.651,16.838 128.839,16.484C128.027,16.129 127.314,15.646 126.699,15.032C126.084,14.416 125.6,13.704 125.246,12.89C124.892,12.078 124.715,11.203 124.715,10.266C124.715,9.328 124.892,8.454 125.246,7.641C125.6,6.829 126.084,6.115 126.699,5.501C127.314,4.885 128.027,4.402 128.839,4.047C129.651,3.693 130.527,3.516 131.464,3.516L149.551,3.516C150.124,3.516 150.588,3.052 150.588,2.479L150.588,0.689C150.588,0.128 150.133,-0.327 149.572,-0.327L131.464,-0.327C130.006,-0.327 128.631,-0.052 127.339,0.501C126.048,1.053 124.923,1.808 123.965,2.766C123.006,3.724 122.246,4.849 121.684,6.141C121.121,7.433 120.839,8.807 120.839,10.266C120.839,11.724 121.121,13.099 121.684,14.39C122.246,15.682 123.006,16.807 123.965,17.765C124.923,18.723 126.048,19.478 127.339,20.031C128.631,20.583 130.006,20.859 131.464,20.859L149.551,20.859C150.124,20.859 150.588,20.395 150.588,19.822M247.564,5.92C247.564,5.03 247.342,4.181 246.907,3.396C246.488,2.641 246.127,1.976 245.418,1.421C244.725,0.877 243.906,0.445 242.982,0.136C242.066,-0.171 241.08,-0.327 240.052,-0.327L222.481,-0.327C221.92,-0.327 221.465,0.128 221.465,0.689L221.465,2.489C221.465,3.054 221.923,3.511 222.486,3.511L240.052,3.511C240.541,3.511 240.999,3.583 241.413,3.724C241.825,3.866 242.19,4.058 242.494,4.297C242.786,4.526 243.007,4.78 243.172,5.077C243.319,5.339 243.39,5.615 243.39,5.92C243.39,6.225 243.317,6.5 243.172,6.763C243.007,7.059 242.786,7.314 242.494,7.542C242.19,7.78 241.826,7.973 241.413,8.115C241.035,8.243 240.614,8.314 240.16,8.323L227.899,8.327C226.881,8.344 225.939,8.476 225.085,8.786C224.255,9.089 223.53,9.434 222.649,10.072C221.954,10.576 221.612,11.291 221.193,12.045C220.758,12.83 220.536,13.68 220.536,14.57C220.536,15.46 220.758,16.309 221.193,17.095C221.614,17.849 221.96,18.395 222.649,19.069C223.386,19.787 224.161,20.043 225.085,20.354C226.003,20.662 226.989,20.817 228.017,20.817L245.563,20.817C246.137,20.817 246.604,20.35 246.604,19.776L246.604,18.037C246.604,17.452 246.13,16.979 245.545,16.979L228.017,16.979C227.529,16.979 227.072,16.907 226.655,16.764C226.243,16.623 225.879,16.432 225.575,16.193C225.282,15.963 225.061,15.709 224.897,15.413C224.75,15.151 224.679,14.875 224.679,14.57C224.679,14.265 224.75,13.989 224.897,13.727C225.061,13.431 225.283,13.176 225.575,12.947C225.878,12.709 226.241,12.517 226.655,12.374C227.031,12.246 227.453,12.175 227.908,12.166L240.052,12.166C240.094,12.166 240.134,12.165 240.175,12.162C241.185,12.147 242.12,11.993 242.984,11.703C243.906,11.394 244.725,10.961 245.418,10.418C246.127,9.863 246.487,9.199 246.907,8.444C247.342,7.659 247.564,6.809 247.564,5.92M185.849,19.829L185.849,0.689C185.849,0.128 185.393,-0.327 184.832,-0.327L182.991,-0.327C182.429,-0.327 181.974,0.128 181.974,0.689L181.974,8.329L158.037,8.329L158.037,0.689C158.037,0.128 157.582,-0.327 157.021,-0.327L155.18,-0.327C154.619,-0.327 154.163,0.128 154.163,0.689L154.163,19.829C154.163,20.398 154.624,20.859 155.193,20.859L157.008,20.859C157.577,20.859 158.037,20.398 158.037,19.829L158.037,12.204L181.974,12.204L181.974,19.829C181.974,20.398 182.436,20.859 183.003,20.859L184.819,20.859C185.388,20.859 185.849,20.398 185.849,19.829M217.203,19.812L217.203,18.032C217.203,17.454 216.735,16.984 216.157,16.984L205.235,16.984L205.235,0.689C205.235,0.128 204.78,-0.327 204.218,-0.327L202.408,-0.327C201.847,-0.327 201.392,0.128 201.392,0.689L201.392,16.984L190.471,16.984C189.893,16.984 189.423,17.454 189.423,18.032L189.423,19.812C189.423,20.39 189.893,20.859 190.471,20.859L216.157,20.859C216.735,20.859 217.203,20.39 217.203,19.812M90.605,19.184L80.944,5.93L80.944,0.689C80.944,0.128 80.489,-0.327 79.926,-0.327L78.117,-0.327C77.555,-0.327 77.1,0.128 77.1,0.689L77.1,5.93L67.437,19.184C66.929,19.881 67.426,20.861 68.29,20.861L70.434,20.861C70.772,20.861 71.088,20.699 71.287,20.426L79.022,9.818L86.756,20.426C86.955,20.699 87.272,20.861 87.609,20.861L89.753,20.861C90.616,20.861 91.115,19.881 90.605,19.184" style="fill:#000000;fill-rule:nonzero;"/>
        </g>
        <g transform="matrix(1,0,0,-1,555.855,1273.67)">
            <path d="M0.989,-0.059C1.152,-0.273 1.233,-0.534 1.233,-0.844C1.233,-1.285 1.062,-1.624 0.72,-1.86C0.378,-2.097 -0.122,-2.216 -0.776,-2.216L-3.374,-2.216L-3.374,2.806L-0.92,2.806C-0.307,2.806 0.162,2.69 0.49,2.456C0.817,2.222 0.981,1.902 0.981,1.501C0.981,1.257 0.923,1.04 0.805,0.848C0.689,0.656 0.525,0.506 0.314,0.396C0.601,0.305 0.826,0.154 0.989,-0.059M-2.218,1.932L-2.218,0.748L-1.063,0.748C-0.776,0.748 -0.559,0.798 -0.41,0.899C-0.263,1 -0.188,1.147 -0.188,1.344C-0.188,1.539 -0.263,1.686 -0.41,1.785C-0.559,1.883 -0.776,1.932 -1.063,1.932L-2.218,1.932ZM-0.17,-1.189C-0.015,-1.09 0.063,-0.933 0.063,-0.724C0.063,-0.307 -0.245,-0.098 -0.862,-0.098L-2.218,-0.098L-2.218,-1.341L-0.862,-1.341C-0.556,-1.341 -0.326,-1.29 -0.17,-1.189" style="fill:#000000;fill-rule:nonzero;"/>
        </g>
        <g transform="matrix(1,0,0,-1,563.71,1275.89)">
            <path d="M0,5.021L0,0L3.889,0L3.889,0.932L1.156,0.932L1.156,2.093L3.487,2.093L3.487,2.999L1.156,2.999L1.156,4.089L3.796,4.089L3.796,5.021L0,5.021Z" style="fill:#000000;fill-rule:nonzero;"/>
        </g>
        <g transform="matrix(1,0,0,-1,573.698,1275.89)">
            <path d="M0,5.021L0,4.074L1.609,4.074L1.609,0L2.771,0L2.771,4.074L4.378,4.074L4.378,5.021L0,5.021Z" style="fill:#000000;fill-rule:nonzero;"/>
        </g>
        <g transform="matrix(1,0,0,-1,583.944,1275.89)">
            <path d="M0,5.021L0,4.074L1.607,4.074L1.607,0L2.77,0L2.77,4.074L4.378,4.074L4.378,5.021L0,5.021Z" style="fill:#000000;fill-rule:nonzero;"/>
        </g>
        <g transform="matrix(1,0,0,-1,594.686,1275.89)">
            <path d="M0,5.021L0,0L3.889,0L3.889,0.932L1.156,0.932L1.156,2.093L3.487,2.093L3.487,2.999L1.156,2.999L1.156,4.089L3.796,4.089L3.796,5.021L0,5.021Z" style="fill:#000000;fill-rule:nonzero;"/>
        </g>
        <g transform="matrix(1,0,0,-1,607.716,1272)">
            <path d="M0.725,-3.884L-0.243,-2.485L-1.313,-2.485L-1.313,-3.884L-2.475,-3.884L-2.475,1.138L-0.3,1.138C0.145,1.138 0.53,1.064 0.858,0.916C1.186,0.767 1.438,0.556 1.615,0.283C1.792,0.012 1.881,-0.31 1.881,-0.684C1.881,-1.057 1.791,-1.379 1.611,-1.648C1.433,-1.919 1.178,-2.127 0.847,-2.269L1.974,-3.884L0.725,-3.884ZM0.43,-0.035C0.249,0.117 -0.017,0.192 -0.365,0.192L-1.313,0.192L-1.313,-1.56L-0.365,-1.56C-0.017,-1.56 0.249,-1.483 0.43,-1.329C0.613,-1.178 0.705,-0.962 0.705,-0.684C0.705,-0.402 0.613,-0.185 0.43,-0.035" style="fill:#000000;fill-rule:nonzero;"/>
        </g>
        <g transform="matrix(1,0,0,-1,623.459,1275.89)">
            <path d="M0,5.021L0,4.074L1.607,4.074L1.607,0L2.77,0L2.77,4.074L4.378,4.074L4.378,5.021L0,5.021Z" style="fill:#000000;fill-rule:nonzero;"/>
        </g>
        <g transform="matrix(1,0,0,-1,636.865,1275.89)">
            <path d="M0.78,5.021L0.78,3.041L-1.501,3.041L-1.501,5.021L-2.662,5.021L-2.662,0L-1.501,0L-1.501,2.059L0.78,2.059L0.78,0L1.945,0L1.945,5.021L0.78,5.021Z" style="fill:#000000;fill-rule:nonzero;"/>
        </g>
        <g transform="matrix(1,0,0,-1,646.812,1275.89)">
            <path d="M0.507,5.021L-1.731,0L-0.539,0L-0.095,1.076L2.237,1.076L2.683,0L3.901,0L1.657,5.021L0.507,5.021ZM1.075,3.882L1.871,1.958L0.278,1.958L1.075,3.882Z" style="fill:#000000;fill-rule:nonzero;"/>
        </g>
        <g transform="matrix(1,0,0,-1,659.651,1275.89)">
            <path d="M0.784,5.021L0.784,1.972L-1.712,5.021L-2.675,5.021L-2.675,0L-1.527,0L-1.527,3.049L0.978,0L1.932,0L1.932,5.021L0.784,5.021Z" style="fill:#000000;fill-rule:nonzero;"/>
        </g>
        <g transform="matrix(1,0,0,-1,679.66,1273.67)">
            <path d="M0.989,-0.059C1.152,-0.273 1.234,-0.534 1.234,-0.844C1.234,-1.285 1.061,-1.624 0.72,-1.86C0.378,-2.097 -0.121,-2.216 -0.776,-2.216L-3.374,-2.216L-3.374,2.806L-0.92,2.806C-0.308,2.806 0.162,2.69 0.491,2.456C0.818,2.222 0.981,1.902 0.981,1.501C0.981,1.257 0.923,1.04 0.806,0.848C0.69,0.656 0.526,0.506 0.314,0.396C0.602,0.305 0.827,0.154 0.989,-0.059M-2.218,1.932L-2.218,0.748L-1.062,0.748C-0.776,0.748 -0.559,0.798 -0.41,0.899C-0.263,1 -0.188,1.147 -0.188,1.344C-0.188,1.539 -0.263,1.686 -0.41,1.785C-0.559,1.883 -0.776,1.932 -1.062,1.932L-2.218,1.932ZM-0.169,-1.189C-0.015,-1.09 0.063,-0.933 0.063,-0.724C0.063,-0.307 -0.245,-0.098 -0.863,-0.098L-2.218,-0.098L-2.218,-1.341L-0.863,-1.341C-0.555,-1.341 -0.325,-1.29 -0.169,-1.189" style="fill:#000000;fill-rule:nonzero;"/>
        </g>
        <g transform="matrix(1,0,0,-1,687.516,1275.89)">
            <path d="M0,5.021L0,0L3.889,0L3.889,0.932L1.155,0.932L1.155,2.093L3.487,2.093L3.487,2.999L1.155,2.999L1.155,4.089L3.796,4.089L3.796,5.021L0,5.021Z" style="fill:#000000;fill-rule:nonzero;"/>
        </g>
        <g transform="matrix(1,0,0,-1,698.368,1272.08)">
            <path d="M0.202,-3.733C-0.169,-3.625 -0.466,-3.484 -0.691,-3.312L-0.297,-2.436C-0.082,-2.595 0.174,-2.722 0.471,-2.817C0.768,-2.914 1.064,-2.961 1.36,-2.961C1.689,-2.961 1.935,-2.912 2.093,-2.813C2.251,-2.715 2.33,-2.586 2.33,-2.423C2.33,-2.304 2.283,-2.204 2.19,-2.125C2.095,-2.047 1.977,-1.982 1.83,-1.934C1.684,-1.888 1.488,-1.834 1.24,-1.776C0.857,-1.686 0.543,-1.595 0.298,-1.503C0.055,-1.413 -0.156,-1.267 -0.329,-1.066C-0.505,-0.866 -0.591,-0.598 -0.591,-0.262C-0.591,0.029 -0.511,0.294 -0.354,0.53C-0.196,0.767 0.042,0.955 0.36,1.094C0.678,1.233 1.066,1.301 1.525,1.301C1.846,1.301 2.16,1.264 2.465,1.187C2.772,1.11 3.041,1 3.27,0.858L2.91,-0.026C2.446,0.237 1.982,0.368 1.519,0.368C1.194,0.368 0.952,0.316 0.799,0.21C0.642,0.105 0.565,-0.033 0.565,-0.205C0.565,-0.379 0.654,-0.505 0.833,-0.589C1.013,-0.673 1.287,-0.756 1.655,-0.836C2.037,-0.928 2.352,-1.019 2.595,-1.109C2.839,-1.2 3.047,-1.344 3.223,-1.54C3.396,-1.736 3.484,-2.001 3.484,-2.337C3.484,-2.623 3.404,-2.886 3.245,-3.122C3.085,-3.359 2.843,-3.548 2.523,-3.686C2.203,-3.824 1.812,-3.893 1.353,-3.893C0.956,-3.893 0.572,-3.839 0.202,-3.733" style="fill:#000000;fill-rule:nonzero;"/>
        </g>
        <g transform="matrix(1,0,0,-1,707.751,1275.89)">
            <path d="M0,5.021L0,4.074L1.607,4.074L1.607,0L2.77,0L2.77,4.074L4.377,4.074L4.377,5.021L0,5.021Z" style="fill:#000000;fill-rule:nonzero;"/>
        </g>
    </g>
</svg>