<?xml version="1.0" encoding="utf-8"?>
<!-- Generator: Adobe Illustrator 26.2.1, SVG Export Plug-In . SVG Version: 6.00 Build 0)  -->
<svg version="1.1" id="Livello_1" xmlns="http://www.w3.org/2000/svg" xmlns:xlink="http://www.w3.org/1999/xlink" x="0px" y="0px"
	 viewBox="0 0 337.62 336.41" style="enable-background:new 0 0 337.62 336.41;" xml:space="preserve">
<g>
	<path d="M212.69,159.91l39.41-54.86c3.69,0.92,13.37,7.14,13.37,18.9C265.47,151.15,234.58,161.76,212.69,159.91 M165.21,226.29
		l44.95-63.15c6.45,1.15,24.66,6.22,24.66,25.12c0,22.82-20.05,39.18-51.4,39.18C175.81,227.45,165.67,226.52,165.21,226.29
		 M144.23,223.76L233.2,99.29c3.46,0.46,6.68,0.92,9.45,1.61l-88.97,124L144.23,223.76z M163.13,111.28h4.15
		c1.61,0,2.54-0.46,3.92-1.15c10.83-5.53,26.05-10.83,49.32-11.29l-88.74,123.77c-40.34-1.15-62.69,7.38-70.76,16.36
		c-0.92,1.15,0,1.61,0.46,1.61h4.15c0.92,0,1.84-0.23,2.77-1.15c7.61-7.15,25.12-13.37,55.55-13.37c24.43,0,37.57,5.07,62,5.07
		c22.36,0,61.54-8.07,61.54-40.34c0-17.75-18.44-26.97-25.35-27.66c15.9,1.15,54.86-8.3,54.86-37.34c0-13.14-10.6-30.42-55.09-29.96
		c-24.43,0.23-46.33,6.45-58.78,13.37C161.52,110.13,162.21,111.28,163.13,111.28"/>
	<path d="M168.81,320.9c-84,0-152.32-68.69-152.32-152.69S84.81,15.89,168.81,15.89S321.5,84.21,321.5,168.21
		S252.81,320.9,168.81,320.9 M168.81,9.54c-87.36,0-158.67,71.31-158.67,158.67c0,87.73,71.31,158.67,158.67,158.67
		c87.73,0,158.67-70.93,158.67-158.67C327.48,80.85,256.55,9.54,168.81,9.54"/>
	<path d="M168.81,314.18c-80.27,0-145.97-65.33-145.97-145.97c0-80.27,65.71-145.97,145.97-145.97
		c80.64,0,145.97,65.33,145.97,145.97C314.79,248.85,249.45,314.18,168.81,314.18 M168.81,20.74
		c-81.39,0-147.47,66.08-147.47,147.47c0,81.39,66.08,147.47,147.47,147.47s147.47-66.08,147.47-147.47
		C316.28,86.82,250.2,20.74,168.81,20.74"/>
</g>
</svg>
