<?xml version="1.0" encoding="utf-8"?>
<!-- Generator: Adobe Illustrator 26.2.1, SVG Export Plug-In . SVG Version: 6.00 Build 0)  -->
<svg version="1.1" id="Livello_1" xmlns="http://www.w3.org/2000/svg" xmlns:xlink="http://www.w3.org/1999/xlink" x="0px" y="0px"
	 viewBox="0 0 427 159" style="enable-background:new 0 0 427 159;" xml:space="preserve">
<path d="M398.71,69.91c0,2.86,1.63,4.49,4.49,4.49c4.9,0,10-6.94,10-11.63c0-2.65-1.84-4.49-4.69-4.49
	C403.61,58.28,398.71,65.22,398.71,69.91 M317.88,129.92c7.55,0,18.98-13.88,27.56-25.92l14.9-20.82h-18.98l-18.98,26.54
	C315.84,118.7,311.14,129.92,317.88,129.92 M308.08,84.61c-4.9,0-18.78,15.31-25.11,28.78C305.22,112.16,316.65,84.61,308.08,84.61
	 M217.04,84.61c-4.9,0-18.78,15.31-25.11,28.78C214.19,112.16,225.62,84.61,217.04,84.61 M180.5,121.76
	c0-21.02,24.09-39.8,35.31-39.8c16.74,0,0,33.68-25.11,34.29c-2.04,5.31-4.08,13.68,3.67,13.68c8.37,0,24.49-12.45,32.46-24.9
	l15.72-21.84h10.41l-5.72,7.76c7.14-4.69,16.53-8.98,22.25-8.98c6.12,0,8.98,2.86,8.98,6.74c0,10.21-26.74,30.21-26.74,38.58
	c0,1.63,1.02,2.65,2.86,2.65c3.88,0,12.04-5.51,16.94-9.8c1.22-20.41,24.29-38.17,35.31-38.17c16.74,0,0,33.68-25.11,34.29
	c-2.04,5.31-4.08,13.68,3.67,13.68c7.35,0,18.58-9.59,26.74-20.82l18.57-25.92h-6.94l2.04-2.86h7.14l13.06-18.58l13.06-3.47
	L343.6,80.32h18.98l13.06-18.58l13.06-3.47L373.2,80.32h9.39l-2.04,2.86h-9.59l-18.98,26.54c-6.53,8.98-11.23,20.21-4.49,20.21
	c7.14,0,16.94-10.82,24.09-20.82l18.37-25.92h10.61l-18.98,26.54c-6.53,8.98-11.23,20-4.49,20c8.78,0,20.82-13.68,27.56-25.72h2.86
	c-7.14,12.86-20.21,29.19-33.07,29.19c-6.33,0-9.8-5.92-8.16-13.27c-6.12,7.55-13.68,13.27-21.43,13.27
	c-6.33,0-10.21-5.92-8.37-13.47c-6.33,7.14-13.47,13.47-21.23,13.47c-6.33,0-10.41-6.12-8.17-13.68
	c-7.35,7.55-16.13,13.68-24.09,13.68c-8.57,0-10.82-6.12-11.23-9.8c-5.72,4.49-13.27,9.8-19.6,9.8c-5.72,0-9.19-3.27-9.19-8.37
	c0-13.47,38.99-39.8,23.88-39.8c-5.92,0-19.39,8.37-24.09,12.66l-24.49,34.29h-10.41l6.74-9.59c-7.35,6.33-15.72,10.82-22.66,10.82
	C181.73,133.19,180.5,124.62,180.5,121.76 M148.46,72.16l34.9-48.58c3.27,0.82,11.84,6.33,11.84,16.74
	C195.2,64.4,167.85,73.79,148.46,72.16 M106.41,130.94l39.8-55.93c5.71,1.02,21.84,5.51,21.84,22.25c0,20.21-17.76,34.7-45.52,34.7
	C115.8,131.96,106.82,131.15,106.41,130.94 M87.83,128.7l78.79-110.23c3.06,0.41,5.92,0.82,8.37,1.43L96.2,129.72L87.83,128.7z
	 M104.57,29.09h3.67c1.43,0,2.25-0.41,3.47-1.02c9.59-4.9,23.07-9.59,43.68-10L76.81,127.68c-35.72-1.02-55.52,6.53-62.67,14.49
	c-0.82,1.02,0,1.43,0.41,1.43h3.67c0.82,0,1.63-0.2,2.45-1.02c6.74-6.33,22.25-11.84,49.19-11.84c21.64,0,33.27,4.49,54.91,4.49
	c19.8,0,54.5-7.14,54.5-35.72c0-15.72-16.33-23.88-22.45-24.49c14.08,1.02,48.58-7.35,48.58-33.07c0-11.64-9.39-26.94-48.79-26.54
	c-21.64,0.2-41.03,5.72-52.05,11.84C103.14,28.06,103.75,29.09,104.57,29.09"/>
</svg>
