<svg xmlns="http://www.w3.org/2000/svg" xmlns:xlink="http://www.w3.org/1999/xlink" xmlns:serif="http://www.serif.com/" width="100%" height="100%" viewBox="0 0 170 33" version="1.1" xml:space="preserve" style="fill-rule:evenodd;clip-rule:evenodd;stroke-linejoin:round;stroke-miterlimit:2;">
    <g transform="matrix(1,0,0,1,5.32907e-15,-0.004)">
        <g transform="matrix(1,0,0,1,-204.659,-2517.11)">
            <g transform="matrix(1,0,0,-1,218.652,2524.39)">
                <g>
                    <path d="M4.1,-24.828L-5.471,-5.445L-9.359,-24.828L-13.993,-24.828L-6.716,7.276L4.1,-16.377L14.817,7.276L22.291,-24.828L17.608,-24.828L13.621,-5.445L4.1,-24.828ZM55.241,-24.828L49.903,-24.828L46.414,-16.9L34.156,-16.9L30.565,-24.828L25.283,-24.828L40.285,7.276L55.241,-24.828ZM44.619,-12.714L40.337,-2.147L36.049,-12.714L44.619,-12.714ZM58.234,-24.828L63.266,-24.828L63.266,7.276L58.234,7.276L58.234,-24.828ZM98.362,-8.828C98.362,-11.002 97.973,-13.025 97.199,-15.002C96.372,-16.928 95.207,-18.654 93.649,-20.185C92.145,-21.72 90.401,-22.854 88.405,-23.645C86.462,-24.431 84.424,-24.828 82.284,-24.828C80.152,-24.828 78.06,-24.431 76.116,-23.645C74.126,-22.854 72.377,-21.67 70.876,-20.185C69.371,-18.654 68.249,-16.928 67.427,-15.002C66.649,-13.074 66.259,-11.002 66.259,-8.828C66.259,-6.604 66.649,-4.578 67.427,-2.606C68.249,-0.678 69.371,1.051 70.876,2.582C72.43,4.114 74.126,5.248 76.116,6.037C78.06,6.879 80.103,7.276 82.284,7.276C84.471,7.276 86.51,6.879 88.452,6.037C90.401,5.248 92.145,4.114 93.649,2.582C95.207,1.051 96.372,-0.678 97.199,-2.652C97.973,-4.578 98.362,-6.654 98.362,-8.828M93.265,-8.828C93.265,-7.248 93.019,-5.813 92.437,-4.383C91.902,-3 91.126,-1.765 90.06,-0.678C89.038,0.408 87.873,1.25 86.51,1.792C85.199,2.385 83.794,2.68 82.284,2.68C80.831,2.68 79.424,2.385 78.06,1.792C76.75,1.25 75.536,0.408 74.514,-0.678C73.45,-1.765 72.67,-3 72.136,-4.383C71.554,-5.765 71.309,-7.248 71.309,-8.828C71.309,-10.358 71.554,-11.843 72.136,-13.223C72.67,-14.608 73.45,-15.839 74.514,-16.928C75.536,-18.016 76.706,-18.853 78.06,-19.396C79.375,-19.94 80.783,-20.234 82.284,-20.234C83.743,-20.234 85.152,-19.94 86.51,-19.396C87.826,-18.853 88.991,-18.016 90.06,-16.928C91.126,-15.839 91.902,-14.608 92.437,-13.174C93.019,-11.79 93.265,-10.358 93.265,-8.828M122.592,-24.828L116.908,-24.828L106.64,-9.821L106.04,-9.821L106.04,-24.828L101.355,-24.828L101.355,7.276L108.338,7.276C110.375,7.276 112.024,7.124 113.123,6.877C114.267,6.579 115.214,6.127 116.009,5.53C117.007,4.783 117.703,3.835 118.254,2.636C118.805,1.443 119.053,0.146 119.053,-1.248C119.053,-3.745 118.456,-5.687 117.257,-7.078C116.009,-8.474 114.267,-9.326 111.922,-9.574L122.592,-24.828ZM107.289,-5.51C109.929,-5.51 111.724,-5.161 112.574,-4.564C113.418,-3.967 113.87,-3.294 113.87,-1.698C113.87,-0.004 113.418,1.194 112.471,1.894C111.526,2.592 109.832,2.936 107.289,2.936L106.04,2.936L106.04,-5.51L107.289,-5.51ZM155.508,-24.828L150.176,-24.828L146.69,-16.9L134.422,-16.9L130.834,-24.828L125.554,-24.828L140.556,7.276L155.508,-24.828ZM144.893,-12.714L140.605,-2.147L136.318,-12.714L144.893,-12.714Z" style="fill:#614d37;fill-rule:nonzero;"/>
                </g>
            </g>
        </g>
    </g>
</svg>