<?xml version="1.0" encoding="utf-8"?>
<!-- Generator: Adobe Illustrator 25.0.1, SVG Export Plug-In . SVG Version: 6.00 Build 0)  -->
<svg version="1.1" id="Layer_1" xmlns="http://www.w3.org/2000/svg" xmlns:xlink="http://www.w3.org/1999/xlink" x="0px" y="0px"
	 viewBox="0 0 126.67 96.32" style="enable-background:new 0 0 126.67 96.32;" xml:space="preserve">
<g>
	<ellipse transform="matrix(0.9239 -0.3827 0.3827 0.9239 -15.0095 28.1812)" cx="63.33" cy="51.82" rx="24.26" ry="24.26"/>
	<path d="M112.17,7.32H83.91C83.23,3.17,79.64,0,75.29,0H51.38c-4.34,0-7.94,3.17-8.62,7.32H14.5C6.49,7.32,0,13.81,0,21.82v60
		c0,8.01,6.49,14.5,14.5,14.5h97.67c8.01,0,14.5-6.49,14.5-14.5v-60C126.67,13.81,120.17,7.32,112.17,7.32z M63.33,84.07
		c-17.81,0-32.25-14.44-32.25-32.25s14.44-32.25,32.25-32.25c17.81,0,32.25,14.44,32.25,32.25S81.14,84.07,63.33,84.07z
		 M108.74,31.08c-3.41,0-6.17-2.76-6.17-6.17c0-3.41,2.76-6.17,6.17-6.17c3.41,0,6.17,2.76,6.17,6.17
		C114.91,28.32,112.15,31.08,108.74,31.08z"/>
</g>
</svg>
