<?xml version="1.0" encoding="utf-8"?>
<!-- Svg Vector Icons : http://www.onlinewebfonts.com/icon -->
<!DOCTYPE svg PUBLIC "-//W3C//DTD SVG 1.1//EN" "http://www.w3.org/Graphics/SVG/1.1/DTD/svg11.dtd">
<svg version="1.1" xmlns="http://www.w3.org/2000/svg" xmlns:xlink="http://www.w3.org/1999/xlink" x="0px" y="0px" viewBox="0 0 256 256" enable-background="new 0 0 256 256" xml:space="preserve">
<metadata> Svg Vector Icons : http://www.onlinewebfonts.com/icon </metadata>
<g><g><path fill="#000000" d="M127.8,10C62.9,10,10,62.9,10,127.8C10,192.8,62.9,246,127.8,246c64.9,0,118.2-53.2,118.2-118.2C246,62.9,192.8,10,127.8,10z M127.8,241.1c-62.7,0-113.3-50.6-113.3-113.3c0-62.7,50.6-113.3,113.3-113.3c62.7,0,113.3,50.6,113.3,113.3C241.1,190.5,190.5,241.1,127.8,241.1z"/><path fill="#000000" d="M106.3,135c1,0,1.9,0.8,1.9,1.9c0,1-0.8,1.9-1.9,1.9V135z"/><path fill="#000000" d="M170.1,92.3h-10.6l-3.8-7.2c-2.3-4.1-3.4-7.2-7.2-7.2h-42.3c-4.1,0-5.3,3.4-7.2,7.2l-3.8,7.2H84.7c-7.9,0-14,6.4-14,14.4v56.6c0,7.9,6.4,14.4,14,14.4h85.3c7.9,0,14-6.4,14-14.4v-57C184.4,98.7,178.4,92.3,170.1,92.3z M127.8,163.3c-15.5,0-28.3-12.8-28.3-28.3c0-15.9,12.5-28.3,28.3-28.3c15.5,0,28.3,12.8,28.3,28.3C156.1,150.9,143.3,163.3,127.8,163.3z"/></g></g>
</svg>