<?xml version="1.0" encoding="utf-8"?>
<!-- Generator: Adobe Illustrator 16.0.0, SVG Export Plug-In . SVG Version: 6.00 Build 0)  -->
<!DOCTYPE svg PUBLIC "-//W3C//DTD SVG 1.1//EN" "http://www.w3.org/Graphics/SVG/1.1/DTD/svg11.dtd">
<svg version="1.1" id="Livello_1" xmlns="http://www.w3.org/2000/svg" xmlns:xlink="http://www.w3.org/1999/xlink" x="0px" y="0px"
	 width="78.033px" height="78.033px" viewBox="0 0 78.033 78.033" enable-background="new 0 0 78.033 78.033" xml:space="preserve">
<g>
	<path fill="#FFFFFF" d="M28.366,25.562v26.904l26.301-13.473L28.366,25.562z M27.651,55.787l-1.914-1.17V23.416l1.912-1.172
		l30.5,15.578l0.002,2.34L27.651,55.787z"/>
	<g>
		<g>
			<defs>
				<rect id="SVGID_1_" width="78.033" height="78.033"/>
			</defs>
			<clipPath id="SVGID_2_">
				<use xlink:href="#SVGID_1_"  overflow="visible"/>
			</clipPath>
			<path clip-path="url(#SVGID_2_)" fill="#FFFFFF" d="M39.016,2.629c-20.065,0-36.388,16.324-36.388,36.389
				c0,20.062,16.323,36.387,36.388,36.387S75.403,59.08,75.403,39.018C75.403,18.953,59.081,2.629,39.016,2.629 M39.016,78.033
				C17.503,78.033,0,60.528,0,39.018C0,17.502,17.503,0,39.016,0c21.512,0,39.016,17.502,39.016,39.018
				C78.032,60.528,60.528,78.033,39.016,78.033"/>
		</g>
	</g>
</g>
</svg>
