<?xml version="1.0" encoding="utf-8"?>
<!-- Generator: Adobe Illustrator 22.0.1, SVG Export Plug-In . SVG Version: 6.00 Build 0)  -->
<svg version="1.1" id="Livello_1" xmlns="http://www.w3.org/2000/svg" xmlns:xlink="http://www.w3.org/1999/xlink" x="0px" y="0px"
	 viewBox="0 0 200 400" style="enable-background:new 0 0 200 200;" xml:space="preserve">
<style type="text/css">
	.st0{fill:#1D1D1B;}
	.st1{fill:#FFFFFF;}
	.st2{fill:#BE9F58;}
	.translate {transform: translate(0, 200px);}
</style>
<circle class="st0" cx="100" cy="100" r="100"/>
<g>
	<path class="st1" d="M36.3,127c-0.9,0.9-1.3,2-1.3,3.3s0.4,2.4,1.3,3.3c1.8,1.8,4.7,1.8,6.5,0L100,76.4l57.2,57.2
		c1.8,1.8,4.7,1.8,6.5,0c1.8-1.8,1.8-4.7,0-6.5l-60.4-60.5c-1.8-1.8-4.7-1.8-6.5,0L36.3,127z"/>
</g>
<circle class="st2" cx="100" cy="300" r="100"/>
<g>
	<path class="st1 translate" d="M36.3,127c-0.9,0.9-1.3,2-1.3,3.3s0.4,2.4,1.3,3.3c1.8,1.8,4.7,1.8,6.5,0L100,76.4l57.2,57.2
		c1.8,1.8,4.7,1.8,6.5,0c1.8-1.8,1.8-4.7,0-6.5l-60.4-60.5c-1.8-1.8-4.7-1.8-6.5,0L36.3,127z"/>
</g>
</svg>
